<svg width="76" height="60" viewBox="0 0 76 60" fill="none" xmlns="http://www.w3.org/2000/svg">
<rect x="0.0422363" y="0.739502" width="75" height="59" fill="white"/>
<path d="M35.2297 37.7395C35.5404 37.7395 35.7922 37.4877 35.7922 37.177C35.7922 36.8663 35.5404 36.6145 35.2297 36.6145C34.9191 36.6145 34.6672 36.8663 34.6672 37.177C34.6672 37.4877 34.9191 37.7395 35.2297 37.7395Z" fill="#22262A" stroke="#22262A" stroke-width="2" stroke-miterlimit="10" stroke-linecap="round" stroke-linejoin="round"/>
<path d="M43.1047 37.7395C43.4154 37.7395 43.6672 37.4877 43.6672 37.177C43.6672 36.8663 43.4154 36.6145 43.1047 36.6145C42.7941 36.6145 42.5422 36.8663 42.5422 37.177C42.5422 37.4877 42.7941 37.7395 43.1047 37.7395Z" fill="#22262A" stroke="#22262A" stroke-width="2" stroke-miterlimit="10" stroke-linecap="round" stroke-linejoin="round"/>
<path d="M29.0422 19.7395H31.2922L33.5422 33.2395H44.7922L47.0422 23.1145H32.4172" stroke="#22262A" stroke-width="2" stroke-linecap="round" stroke-linejoin="round"/>
<circle cx="50.0422" cy="16.7395" r="11" fill="#FB7181" stroke="white" stroke-width="2"/>
<path d="M47.5758 19.3695C47.8025 19.1895 47.9058 19.1062 47.8858 19.1195C48.5391 18.5795 49.0525 18.1362 49.4258 17.7895C49.8058 17.4428 50.1258 17.0795 50.3858 16.6995C50.6458 16.3195 50.7758 15.9495 50.7758 15.5895C50.7758 15.3162 50.7125 15.1028 50.5858 14.9495C50.4591 14.7962 50.2691 14.7195 50.0158 14.7195C49.7625 14.7195 49.5625 14.8162 49.4158 15.0095C49.2758 15.1962 49.2058 15.4628 49.2058 15.8095H47.5558C47.5691 15.2428 47.6891 14.7695 47.9158 14.3895C48.1491 14.0095 48.4525 13.7295 48.8258 13.5495C49.2058 13.3695 49.6258 13.2795 50.0858 13.2795C50.8791 13.2795 51.4758 13.4828 51.8758 13.8895C52.2825 14.2962 52.4858 14.8262 52.4858 15.4795C52.4858 16.1928 52.2425 16.8562 51.7558 17.4695C51.2691 18.0762 50.6491 18.6695 49.8958 19.2495H52.5958V20.6395H47.5758V19.3695Z" fill="white"/>
</svg>
