<svg width="1257" height="480" viewBox="0 0 1257 480" fill="none" xmlns="http://www.w3.org/2000/svg">
<path d="M54.2395 14.5319V9.99192H56.7595C58.5395 9.99192 59.3395 10.8319 59.3395 12.2719C59.3395 13.6719 58.5395 14.5319 56.7595 14.5319H54.2395ZM61.6795 12.2719C61.6795 10.0119 60.0595 8.13192 56.7595 8.13192H51.9595V22.0319H54.2395V16.3919H56.7595C60.3795 16.3919 61.6795 14.2519 61.6795 12.2719ZM71.234 12.2919C71.234 13.6719 70.434 14.6519 68.654 14.6519H66.134V9.99192H68.654C70.434 9.99192 71.234 10.8919 71.234 12.2919ZM63.854 8.13192V22.0319H66.134V16.4719H67.874L71.074 22.0319H73.794L70.354 16.2719C72.694 15.6919 73.574 13.9319 73.574 12.2919C73.574 10.0319 71.954 8.13192 68.654 8.13192H63.854ZM89.9307 15.0519C89.9307 10.8919 86.7907 7.95192 82.8307 7.95192C78.9107 7.95192 75.7307 10.8919 75.7307 15.0519C75.7307 19.2319 78.9107 22.1719 82.8307 22.1719C86.7907 22.1719 89.9307 19.2319 89.9307 15.0519ZM78.0707 15.0519C78.0707 11.9119 80.0707 9.95192 82.8307 9.95192C85.5907 9.95192 87.5907 11.9119 87.5907 15.0519C87.5907 18.1919 85.5907 20.1919 82.8307 20.1919C80.0707 20.1919 78.0707 18.1919 78.0707 15.0519ZM96.7143 8.13192H92.1743V22.0319H96.7143C101.174 22.0319 104.094 19.4119 104.094 15.1319C104.094 10.8319 101.174 8.13192 96.7143 8.13192ZM94.4543 20.1719V9.99192H96.7143C99.9943 9.99192 101.754 11.9519 101.754 15.1319C101.754 18.2919 99.9943 20.1719 96.7143 20.1719H94.4543ZM106.334 16.9519C106.334 20.4919 108.814 22.1719 111.734 22.1719C114.634 22.1719 117.194 20.4919 117.194 16.9519V8.13192H114.914V16.9919C114.914 19.1519 113.694 20.1719 111.754 20.1719C109.834 20.1719 108.614 19.1519 108.614 16.9919V8.13192H106.334V16.9519ZM119.403 15.0519C119.403 19.2319 122.583 22.1519 126.503 22.1519C129.403 22.1519 131.903 20.7119 132.963 17.9919H130.223C129.483 19.4719 128.163 20.1719 126.503 20.1719C123.743 20.1719 121.743 18.1919 121.743 15.0519C121.743 11.9119 123.743 9.95192 126.503 9.95192C128.163 9.95192 129.483 10.6519 130.223 12.1319H132.963C131.903 9.41192 129.403 7.95192 126.503 7.95192C122.583 7.95192 119.403 10.8919 119.403 15.0519ZM134.911 9.99192H138.631V22.0319H140.911V9.99192H144.611V8.13192H134.911V9.99192Z" fill="#22262A"/>
<path d="M761.739 14.5319V9.99192H764.259C766.039 9.99192 766.839 10.8319 766.839 12.2719C766.839 13.6719 766.039 14.5319 764.259 14.5319H761.739ZM769.179 12.2719C769.179 10.0119 767.559 8.13192 764.259 8.13192H759.459V22.0319H761.739V16.3919H764.259C767.879 16.3919 769.179 14.2519 769.179 12.2719ZM778.734 12.2919C778.734 13.6719 777.934 14.6519 776.154 14.6519H773.634V9.99192H776.154C777.934 9.99192 778.734 10.8919 778.734 12.2919ZM771.354 8.13192V22.0319H773.634V16.4719H775.374L778.574 22.0319H781.294L777.854 16.2719C780.194 15.6919 781.074 13.9319 781.074 12.2919C781.074 10.0319 779.454 8.13192 776.154 8.13192H771.354ZM783.99 22.0319H786.27V8.13192H783.99V22.0319ZM788.504 15.0519C788.504 19.2319 791.684 22.1519 795.604 22.1519C798.504 22.1519 801.004 20.7119 802.064 17.9919H799.324C798.584 19.4719 797.264 20.1719 795.604 20.1719C792.844 20.1719 790.844 18.1919 790.844 15.0519C790.844 11.9119 792.844 9.95192 795.604 9.95192C797.264 9.95192 798.584 10.6519 799.324 12.1319H802.064C801.004 9.41192 798.504 7.95192 795.604 7.95192C791.684 7.95192 788.504 10.8919 788.504 15.0519ZM812.412 8.11192H804.732V22.0319H812.412V20.1719H807.012V15.9119H811.812V14.0519H807.012V9.97192H812.412V8.11192Z" fill="#22262A"/>
<path d="M937.108 15.0519C937.108 11.9119 939.108 9.95192 941.868 9.95192C944.628 9.95192 946.628 11.9119 946.628 15.0519C946.628 18.1919 944.628 20.1919 941.868 20.1919C939.108 20.1919 937.108 18.1919 937.108 15.0519ZM948.968 15.0519C948.968 10.8919 945.828 7.95192 941.868 7.95192C937.948 7.95192 934.768 10.8919 934.768 15.0519C934.768 19.2319 937.948 22.1719 941.868 22.1719C942.568 22.1719 943.228 22.0919 943.848 21.9119L946.288 24.5519H949.188L945.848 21.0119C947.748 19.7919 948.968 17.6719 948.968 15.0519ZM950.55 9.99192H954.27V22.0319H956.55V9.99192H960.25V8.13192H950.55V9.99192ZM965.979 16.9919V22.0319H968.259V16.9919L972.859 8.13192H970.339L967.119 14.9519L963.899 8.13192H961.359L965.979 16.9919Z" fill="#22262A"/>
<path d="M1134.12 16.9519C1134.12 20.4919 1136.6 22.1719 1139.52 22.1719C1142.42 22.1719 1144.98 20.4919 1144.98 16.9519V8.13192H1142.7V16.9919C1142.7 19.1519 1141.48 20.1719 1139.54 20.1719C1137.62 20.1719 1136.4 19.1519 1136.4 16.9919V8.13192H1134.12V16.9519ZM1157.09 8.11192V18.4719L1150.23 8.11192H1147.95V22.0319H1150.23V11.6519L1157.09 22.0319H1159.37V8.11192H1157.09ZM1162.37 22.0319H1164.65V8.13192H1162.37V22.0319ZM1166.92 9.99192H1170.64V22.0319H1172.92V9.99192H1176.62V8.13192H1166.92V9.99192ZM1186.4 14.5319V9.99192H1188.92C1190.7 9.99192 1191.5 10.8319 1191.5 12.2719C1191.5 13.6719 1190.7 14.5319 1188.92 14.5319H1186.4ZM1193.84 12.2719C1193.84 10.0119 1192.22 8.13192 1188.92 8.13192H1184.12V22.0319H1186.4V16.3919H1188.92C1192.54 16.3919 1193.84 14.2519 1193.84 12.2719ZM1203.4 12.2919C1203.4 13.6719 1202.6 14.6519 1200.82 14.6519H1198.3V9.99192H1200.82C1202.6 9.99192 1203.4 10.8919 1203.4 12.2919ZM1196.02 8.13192V22.0319H1198.3V16.4719H1200.04L1203.24 22.0319H1205.96L1202.52 16.2719C1204.86 15.6919 1205.74 13.9319 1205.74 12.2919C1205.74 10.0319 1204.12 8.13192 1200.82 8.13192H1196.02ZM1208.65 22.0319H1210.93V8.13192H1208.65V22.0319ZM1213.17 15.0519C1213.17 19.2319 1216.35 22.1519 1220.27 22.1519C1223.17 22.1519 1225.67 20.7119 1226.73 17.9919H1223.99C1223.25 19.4719 1221.93 20.1719 1220.27 20.1719C1217.51 20.1719 1215.51 18.1919 1215.51 15.0519C1215.51 11.9119 1217.51 9.95192 1220.27 9.95192C1221.93 9.95192 1223.25 10.6519 1223.99 12.1319H1226.73C1225.67 9.41192 1223.17 7.95192 1220.27 7.95192C1216.35 7.95192 1213.17 10.8919 1213.17 15.0519ZM1237.08 8.11192H1229.4V22.0319H1237.08V20.1719H1231.68V15.9119H1236.48V14.0519H1231.68V9.97192H1237.08V8.11192Z" fill="#22262A"/>
<path d="M1256.11 53.0319H0V55.0319H1256.11V53.0319Z" fill="#F6F7F8"/>
<path d="M1256.11 265.032H0V267.032H1256.11V265.032Z" fill="#F6F7F8"/>
<path d="M247.576 156.468V166.44L240.988 156.468H239.35V169.032H240.988V159.042L247.576 169.032H249.214V156.468H247.576ZM252.007 169.032H253.645V159.168H252.007V169.032ZM252.853 157.566C253.447 157.566 253.933 157.08 253.933 156.45C253.933 155.82 253.447 155.334 252.853 155.334C252.223 155.334 251.737 155.82 251.737 156.45C251.737 157.08 252.223 157.566 252.853 157.566ZM256.436 169.032H258.074V164.676L261.944 169.032H264.176L259.514 164.082L264.158 159.168H261.872L258.074 163.542V155.712H256.436V169.032ZM269.894 160.392C271.586 160.392 273.026 161.454 273.008 163.38H266.78C266.96 161.454 268.292 160.392 269.894 160.392ZM274.502 165.99H272.738C272.378 167.052 271.442 167.808 269.966 167.808C268.292 167.808 266.888 166.71 266.762 164.712H274.646C274.682 164.37 274.7 164.082 274.7 163.722C274.7 161.022 272.828 159.006 269.966 159.006C267.086 159.006 265.088 160.968 265.088 164.082C265.088 167.214 267.158 169.194 269.966 169.194C272.414 169.194 273.998 167.79 274.502 165.99ZM290.085 169.032H291.813L287.295 156.558H285.405L280.869 169.032H282.597L283.605 166.242H289.077L290.085 169.032ZM288.609 164.91H284.073L286.341 158.574L288.609 164.91ZM293.79 169.032H295.428V159.168H293.79V169.032ZM294.636 157.566C295.23 157.566 295.716 157.08 295.716 156.45C295.716 155.82 295.23 155.334 294.636 155.334C294.006 155.334 293.52 155.82 293.52 156.45C293.52 157.08 294.006 157.566 294.636 157.566ZM299.857 163.668C299.857 161.382 301.045 160.68 302.611 160.68H303.043V158.988C301.477 158.988 300.415 159.672 299.857 160.77V159.168H298.219V169.032H299.857V163.668ZM319.172 169.032H320.792V163.218C320.792 160.392 319.046 158.988 316.796 158.988C315.284 158.988 313.88 159.762 313.304 161.184C312.656 159.708 311.306 158.988 309.686 158.988C308.39 158.988 307.22 159.546 306.572 160.59V159.168H304.934V169.032H306.572V163.596C306.572 161.472 307.706 160.41 309.362 160.41C310.982 160.41 312.062 161.436 312.062 163.452V169.032H313.682V163.596C313.682 161.472 314.816 160.41 316.472 160.41C318.092 160.41 319.172 161.436 319.172 163.452V169.032ZM322.867 164.064C322.867 167.124 324.901 169.194 327.529 169.194C329.347 169.194 330.625 168.258 331.219 167.196V169.032H332.875V159.168H331.219V160.968C330.643 159.942 329.383 159.006 327.547 159.006C324.901 159.006 322.867 160.986 322.867 164.064ZM331.219 164.082C331.219 166.404 329.671 167.754 327.871 167.754C326.071 167.754 324.541 166.386 324.541 164.064C324.541 161.742 326.071 160.428 327.871 160.428C329.671 160.428 331.219 161.796 331.219 164.082ZM340.791 169.032H342.645L339.459 164.046L342.627 159.168H340.917L338.685 162.822L336.345 159.168H334.491L337.677 164.136L334.491 169.032H336.201L338.451 165.36L340.791 169.032ZM348.587 168.888H357.245V167.52H351.053C353.375 165.63 356.867 162.876 356.867 159.636C356.867 157.224 355.283 155.784 352.835 155.784C350.495 155.784 348.749 157.224 348.641 159.996H350.225C350.297 158.358 351.161 157.188 352.853 157.188C354.617 157.188 355.247 158.268 355.247 159.708C355.247 162.372 352.007 164.964 348.587 167.718V168.888ZM358.617 156.054V157.458H365.565L360.489 169.032H362.145L367.149 157.296V156.054H358.617ZM368.965 162.39C368.965 166.17 369.901 169.032 373.501 169.032C377.083 169.032 378.019 166.17 378.019 162.39C378.019 158.664 377.083 155.82 373.501 155.82C369.901 155.82 368.965 158.664 368.965 162.39ZM376.399 162.39C376.399 165.198 376.057 167.538 373.501 167.538C370.927 167.538 370.585 165.198 370.585 162.39C370.585 159.69 370.927 157.314 373.501 157.314C376.057 157.314 376.399 159.69 376.399 162.39ZM386.975 163.668C386.975 161.382 388.163 160.68 389.729 160.68H390.161V158.988C388.595 158.988 387.533 159.672 386.975 160.77V159.168H385.337V169.032H386.975V163.668ZM396.246 160.392C397.938 160.392 399.378 161.454 399.36 163.38H393.132C393.312 161.454 394.644 160.392 396.246 160.392ZM400.854 165.99H399.09C398.73 167.052 397.794 167.808 396.318 167.808C394.644 167.808 393.24 166.71 393.114 164.712H400.998C401.034 164.37 401.052 164.082 401.052 163.722C401.052 161.022 399.18 159.006 396.318 159.006C393.438 159.006 391.44 160.968 391.44 164.082C391.44 167.214 393.51 169.194 396.318 169.194C398.766 169.194 400.35 167.79 400.854 165.99ZM402.602 164.064C402.602 167.124 404.636 169.194 407.264 169.194C409.082 169.194 410.36 168.258 410.954 167.196V169.032H412.61V159.168H410.954V160.968C410.378 159.942 409.118 159.006 407.282 159.006C404.636 159.006 402.602 160.986 402.602 164.064ZM410.954 164.082C410.954 166.404 409.406 167.754 407.606 167.754C405.806 167.754 404.276 166.386 404.276 164.064C404.276 161.742 405.806 160.428 407.606 160.428C409.406 160.428 410.954 161.796 410.954 164.082ZM414.766 164.082C414.766 167.214 416.764 169.194 419.572 169.194C422.02 169.194 423.622 167.826 424.126 165.864H422.362C422.002 167.106 421.03 167.808 419.572 167.808C417.772 167.808 416.44 166.53 416.44 164.082C416.44 161.67 417.772 160.392 419.572 160.392C421.03 160.392 422.02 161.148 422.362 162.336H424.126C423.622 160.266 422.02 159.006 419.572 159.006C416.764 159.006 414.766 160.986 414.766 164.082ZM426.671 166.332C426.671 168.312 427.661 169.032 429.407 169.032H430.883V167.646H429.677C428.669 167.646 428.309 167.304 428.309 166.332V160.518H430.883V159.168H428.309V156.684H426.671V159.168H425.393V160.518H426.671V166.332Z" fill="#262626"/>
<path d="M247.576 369.968V379.94L240.988 369.968H239.35V382.532H240.988V372.542L247.576 382.532H249.214V369.968H247.576ZM252.006 382.532H253.644V372.668H252.006V382.532ZM252.852 371.066C253.446 371.066 253.932 370.58 253.932 369.95C253.932 369.32 253.446 368.834 252.852 368.834C252.222 368.834 251.736 369.32 251.736 369.95C251.736 370.58 252.222 371.066 252.852 371.066ZM256.436 382.532H258.074V378.176L261.944 382.532H264.176L259.514 377.582L264.158 372.668H261.872L258.074 377.042V369.212H256.436V382.532ZM269.893 373.892C271.585 373.892 273.025 374.954 273.007 376.88H266.779C266.959 374.954 268.291 373.892 269.893 373.892ZM274.501 379.49H272.737C272.377 380.552 271.441 381.308 269.965 381.308C268.291 381.308 266.887 380.21 266.761 378.212H274.645C274.681 377.87 274.699 377.582 274.699 377.222C274.699 374.522 272.827 372.506 269.965 372.506C267.085 372.506 265.087 374.468 265.087 377.582C265.087 380.714 267.157 382.694 269.965 382.694C272.413 382.694 273.997 381.29 274.501 379.49ZM290.084 382.532H291.812L287.294 370.058H285.404L280.868 382.532H282.596L283.604 379.742H289.076L290.084 382.532ZM288.608 378.41H284.072L286.34 372.074L288.608 378.41ZM293.789 382.532H295.427V372.668H293.789V382.532ZM294.635 371.066C295.229 371.066 295.715 370.58 295.715 369.95C295.715 369.32 295.229 368.834 294.635 368.834C294.005 368.834 293.519 369.32 293.519 369.95C293.519 370.58 294.005 371.066 294.635 371.066ZM299.857 377.168C299.857 374.882 301.045 374.18 302.611 374.18H303.043V372.488C301.477 372.488 300.415 373.172 299.857 374.27V372.668H298.219V382.532H299.857V377.168ZM319.172 382.532H320.792V376.718C320.792 373.892 319.046 372.488 316.796 372.488C315.284 372.488 313.88 373.262 313.304 374.684C312.656 373.208 311.306 372.488 309.686 372.488C308.39 372.488 307.22 373.046 306.572 374.09V372.668H304.934V382.532H306.572V377.096C306.572 374.972 307.706 373.91 309.362 373.91C310.982 373.91 312.062 374.936 312.062 376.952V382.532H313.682V377.096C313.682 374.972 314.816 373.91 316.472 373.91C318.092 373.91 319.172 374.936 319.172 376.952V382.532ZM322.867 377.564C322.867 380.624 324.901 382.694 327.529 382.694C329.347 382.694 330.625 381.758 331.219 380.696V382.532H332.875V372.668H331.219V374.468C330.643 373.442 329.383 372.506 327.547 372.506C324.901 372.506 322.867 374.486 322.867 377.564ZM331.219 377.582C331.219 379.904 329.671 381.254 327.871 381.254C326.071 381.254 324.541 379.886 324.541 377.564C324.541 375.242 326.071 373.928 327.871 373.928C329.671 373.928 331.219 375.296 331.219 377.582ZM340.791 382.532H342.645L339.459 377.546L342.627 372.668H340.917L338.685 376.322L336.345 372.668H334.491L337.677 377.636L334.491 382.532H336.201L338.451 378.86L340.791 382.532ZM348.587 382.388H357.245V381.02H351.053C353.375 379.13 356.867 376.376 356.867 373.136C356.867 370.724 355.283 369.284 352.835 369.284C350.495 369.284 348.749 370.724 348.641 373.496H350.225C350.297 371.858 351.161 370.688 352.853 370.688C354.617 370.688 355.247 371.768 355.247 373.208C355.247 375.872 352.007 378.464 348.587 381.218V382.388ZM358.616 369.554V370.958H365.564L360.488 382.532H362.144L367.148 370.796V369.554H358.616ZM368.965 375.89C368.965 379.67 369.901 382.532 373.501 382.532C377.083 382.532 378.019 379.67 378.019 375.89C378.019 372.164 377.083 369.32 373.501 369.32C369.901 369.32 368.965 372.164 368.965 375.89ZM376.399 375.89C376.399 378.698 376.057 381.038 373.501 381.038C370.927 381.038 370.585 378.698 370.585 375.89C370.585 373.19 370.927 370.814 373.501 370.814C376.057 370.814 376.399 373.19 376.399 375.89ZM386.974 377.168C386.974 374.882 388.162 374.18 389.728 374.18H390.16V372.488C388.594 372.488 387.532 373.172 386.974 374.27V372.668H385.336V382.532H386.974V377.168ZM396.245 373.892C397.937 373.892 399.377 374.954 399.359 376.88H393.131C393.311 374.954 394.643 373.892 396.245 373.892ZM400.853 379.49H399.089C398.729 380.552 397.793 381.308 396.317 381.308C394.643 381.308 393.239 380.21 393.113 378.212H400.997C401.033 377.87 401.051 377.582 401.051 377.222C401.051 374.522 399.179 372.506 396.317 372.506C393.437 372.506 391.439 374.468 391.439 377.582C391.439 380.714 393.509 382.694 396.317 382.694C398.765 382.694 400.349 381.29 400.853 379.49ZM402.601 377.564C402.601 380.624 404.635 382.694 407.263 382.694C409.081 382.694 410.359 381.758 410.953 380.696V382.532H412.609V372.668H410.953V374.468C410.377 373.442 409.117 372.506 407.281 372.506C404.635 372.506 402.601 374.486 402.601 377.564ZM410.953 377.582C410.953 379.904 409.405 381.254 407.605 381.254C405.805 381.254 404.275 379.886 404.275 377.564C404.275 375.242 405.805 373.928 407.605 373.928C409.405 373.928 410.953 375.296 410.953 377.582ZM414.765 377.582C414.765 380.714 416.763 382.694 419.571 382.694C422.019 382.694 423.621 381.326 424.125 379.364H422.361C422.001 380.606 421.029 381.308 419.571 381.308C417.771 381.308 416.439 380.03 416.439 377.582C416.439 375.17 417.771 373.892 419.571 373.892C421.029 373.892 422.019 374.648 422.361 375.836H424.125C423.621 373.766 422.019 372.506 419.571 372.506C416.763 372.506 414.765 374.486 414.765 377.582ZM426.671 379.832C426.671 381.812 427.661 382.532 429.407 382.532H430.883V381.146H429.677C428.669 381.146 428.309 380.804 428.309 379.832V374.018H430.883V372.668H428.309V370.184H426.671V372.668H425.393V374.018H426.671V379.832Z" fill="#262626"/>
<path d="M1137.45 170.598H1138.42V169.14C1140.87 168.978 1142.13 167.268 1142.13 165.594C1142.13 163.092 1140.2 162.57 1138.42 162.12V157.728C1139.52 157.962 1140.11 158.772 1140.22 159.546H1141.97C1141.79 157.728 1140.47 156.522 1138.42 156.342V154.848H1137.45V156.342C1135.2 156.486 1133.72 157.872 1133.72 159.816C1133.72 162.3 1135.65 162.822 1137.45 163.29V167.79C1136.17 167.592 1135.58 166.71 1135.49 165.774H1133.74C1133.78 167.682 1135.29 168.942 1137.45 169.14V170.598ZM1140.49 165.684C1140.49 166.764 1139.75 167.664 1138.42 167.808V163.56C1139.57 163.902 1140.49 164.406 1140.49 165.684ZM1135.4 159.726C1135.4 158.448 1136.24 157.8 1137.45 157.692V161.85C1136.3 161.49 1135.4 161.004 1135.4 159.726ZM1151.22 169.032H1152.84V166.134H1154.64V164.712H1152.84V156.144H1150.88L1144.56 164.892V166.134H1151.22V169.032ZM1146.45 164.712L1151.29 157.854V164.712H1146.45ZM1156.87 165.54C1157.05 167.448 1158.31 169.05 1160.9 169.05C1164.32 169.05 1165.31 166.62 1165.31 162.282C1165.31 158.25 1164.29 155.766 1160.76 155.766C1157.95 155.766 1156.47 157.566 1156.47 160.05C1156.47 162.804 1158.26 164.298 1160.65 164.298C1162.05 164.298 1163.35 163.668 1163.87 162.57C1163.93 166.386 1162.9 167.682 1160.99 167.682C1159.48 167.682 1158.62 166.89 1158.38 165.54H1156.87ZM1160.92 162.912C1158.98 162.912 1158.04 161.688 1158.04 160.014C1158.04 158.286 1159.1 157.134 1160.79 157.134C1162.67 157.134 1163.67 158.376 1163.67 160.14C1163.67 161.886 1162.49 162.912 1160.92 162.912ZM1168.21 165.54C1168.39 167.448 1169.65 169.05 1172.24 169.05C1175.66 169.05 1176.65 166.62 1176.65 162.282C1176.65 158.25 1175.62 155.766 1172.1 155.766C1169.29 155.766 1167.81 157.566 1167.81 160.05C1167.81 162.804 1169.59 164.298 1171.99 164.298C1173.39 164.298 1174.69 163.668 1175.21 162.57C1175.26 166.386 1174.24 167.682 1172.33 167.682C1170.82 167.682 1169.95 166.89 1169.72 165.54H1168.21ZM1172.26 162.912C1170.31 162.912 1169.38 161.688 1169.38 160.014C1169.38 158.286 1170.44 157.134 1172.13 157.134C1174 157.134 1175.01 158.376 1175.01 160.14C1175.01 161.886 1173.82 162.912 1172.26 162.912Z" fill="#262626"/>
<path d="M762.765 170.598H763.737V169.14C766.185 168.978 767.445 167.268 767.445 165.594C767.445 163.092 765.519 162.57 763.737 162.12V157.728C764.835 157.962 765.429 158.772 765.537 159.546H767.283C767.103 157.728 765.789 156.522 763.737 156.342V154.848H762.765V156.342C760.515 156.486 759.039 157.872 759.039 159.816C759.039 162.3 760.965 162.822 762.765 163.29V167.79C761.487 167.592 760.893 166.71 760.803 165.774H759.057C759.093 167.682 760.605 168.942 762.765 169.14V170.598ZM765.807 165.684C765.807 166.764 765.069 167.664 763.737 167.808V163.56C764.889 163.902 765.807 164.406 765.807 165.684ZM760.713 159.726C760.713 158.448 761.559 157.8 762.765 157.692V161.85C761.613 161.49 760.713 161.004 760.713 159.726ZM770.866 165.54C771.046 167.448 772.306 169.05 774.898 169.05C778.318 169.05 779.308 166.62 779.308 162.282C779.308 158.25 778.282 155.766 774.754 155.766C771.946 155.766 770.47 157.566 770.47 160.05C770.47 162.804 772.252 164.298 774.646 164.298C776.05 164.298 777.346 163.668 777.868 162.57C777.922 166.386 776.896 167.682 774.988 167.682C773.476 167.682 772.612 166.89 772.378 165.54H770.866ZM774.916 162.912C772.972 162.912 772.036 161.688 772.036 160.014C772.036 158.286 773.098 157.134 774.79 157.134C776.662 157.134 777.67 158.376 777.67 160.14C777.67 161.886 776.482 162.912 774.916 162.912ZM782.204 165.54C782.384 167.448 783.644 169.05 786.236 169.05C789.656 169.05 790.646 166.62 790.646 162.282C790.646 158.25 789.62 155.766 786.092 155.766C783.284 155.766 781.808 157.566 781.808 160.05C781.808 162.804 783.59 164.298 785.984 164.298C787.388 164.298 788.684 163.668 789.206 162.57C789.26 166.386 788.234 167.682 786.326 167.682C784.814 167.682 783.95 166.89 783.716 165.54H782.204ZM786.254 162.912C784.31 162.912 783.374 161.688 783.374 160.014C783.374 158.286 784.436 157.134 786.128 157.134C788 157.134 789.008 158.376 789.008 160.14C789.008 161.886 787.82 162.912 786.254 162.912ZM795.324 162.264C793.866 162.696 792.912 163.884 792.912 165.522C792.912 167.88 794.766 169.392 797.502 169.392C800.256 169.392 802.128 167.88 802.128 165.522C802.128 163.902 801.174 162.714 799.698 162.264C800.976 161.76 801.786 160.68 801.786 159.276C801.786 157.386 800.328 155.82 797.502 155.82C794.676 155.82 793.236 157.368 793.236 159.276C793.236 160.734 793.992 161.742 795.324 162.264ZM797.502 161.724C795.918 161.724 794.82 160.842 794.82 159.492C794.82 157.962 795.9 157.188 797.502 157.188C799.14 157.188 800.202 157.98 800.202 159.474C800.202 160.824 799.104 161.724 797.502 161.724ZM797.502 162.984C799.212 162.984 800.508 163.794 800.508 165.468C800.508 166.98 799.356 168.024 797.502 168.024C795.648 168.024 794.478 166.998 794.478 165.468C794.478 163.74 795.828 162.984 797.502 162.984Z" fill="#262626"/>
<path d="M1054.27 137.032H938.322C935.95 137.032 934.028 138.823 934.028 141.032V179.032C934.028 181.241 935.95 183.032 938.322 183.032H1054.27C1056.64 183.032 1058.56 181.241 1058.56 179.032V141.032C1058.56 138.823 1056.64 137.032 1054.27 137.032Z" fill="#F6F7F8"/>
<path d="M1000.46 167.032V165.7H994.576C997.924 163.054 1000.41 160.822 1000.41 158.374C1000.41 155.98 998.374 154.846 996.376 154.846C994.684 154.846 993.118 155.53 992.2 156.736L993.118 157.69C993.82 156.79 994.936 156.178 996.376 156.178C997.618 156.178 998.878 156.844 998.878 158.374C998.878 160.444 996.538 162.442 992.218 165.844V167.032H1000.46Z" fill="#262626"/>
<path d="M1040.31 159.032H1031.73V161.032H1040.31V159.032Z" fill="#33A0FF"/>
<path d="M1037.09 164.032V156.032H1034.95V164.032H1037.09Z" fill="#33A0FF"/>
<path d="M960.868 159.032H952.279V161.032H960.868V159.032Z" fill="#33A0FF"/>
<path opacity="0.05" d="M11.8096 171.032C18.3318 171.032 23.6191 166.107 23.6191 160.032C23.6191 153.957 18.3318 149.032 11.8096 149.032C5.28732 149.032 0 153.957 0 160.032C0 166.107 5.28732 171.032 11.8096 171.032Z" fill="#FF6875"/>
<path d="M16.6249 156.739L15.8657 156.032L7.51511 163.81L8.27425 164.517L16.6249 156.739Z" fill="#FF4252"/>
<path d="M15.8659 164.517L16.625 163.81L8.27438 156.032L7.51524 156.739L15.8659 164.517Z" fill="#FF4252"/>
<path d="M190.027 95.0319H50.4595V225.032H190.027V95.0319Z" fill="white"/>
<path d="M1256.11 477.032H0V479.032H1256.11V477.032Z" fill="#F6F7F8"/>
<path d="M1137.45 382.598H1138.42V381.14C1140.87 380.978 1142.13 379.268 1142.13 377.594C1142.13 375.092 1140.2 374.57 1138.42 374.12V369.728C1139.52 369.962 1140.11 370.772 1140.22 371.546H1141.97C1141.79 369.728 1140.47 368.522 1138.42 368.342V366.848H1137.45V368.342C1135.2 368.486 1133.72 369.872 1133.72 371.816C1133.72 374.3 1135.65 374.822 1137.45 375.29V379.79C1136.17 379.592 1135.58 378.71 1135.49 377.774H1133.74C1133.78 379.682 1135.29 380.942 1137.45 381.14V382.598ZM1140.49 377.684C1140.49 378.764 1139.75 379.664 1138.42 379.808V375.56C1139.57 375.902 1140.49 376.406 1140.49 377.684ZM1135.4 371.726C1135.4 370.448 1136.24 369.8 1137.45 369.692V373.85C1136.3 373.49 1135.4 373.004 1135.4 371.726ZM1151.22 381.032H1152.84V378.134H1154.64V376.712H1152.84V368.144H1150.88L1144.56 376.892V378.134H1151.22V381.032ZM1146.45 376.712L1151.29 369.854V376.712H1146.45ZM1156.87 377.54C1157.05 379.448 1158.31 381.05 1160.9 381.05C1164.32 381.05 1165.31 378.62 1165.31 374.282C1165.31 370.25 1164.29 367.766 1160.76 367.766C1157.95 367.766 1156.47 369.566 1156.47 372.05C1156.47 374.804 1158.26 376.298 1160.65 376.298C1162.05 376.298 1163.35 375.668 1163.87 374.57C1163.93 378.386 1162.9 379.682 1160.99 379.682C1159.48 379.682 1158.62 378.89 1158.38 377.54H1156.87ZM1160.92 374.912C1158.98 374.912 1158.04 373.688 1158.04 372.014C1158.04 370.286 1159.1 369.134 1160.79 369.134C1162.67 369.134 1163.67 370.376 1163.67 372.14C1163.67 373.886 1162.49 374.912 1160.92 374.912ZM1168.21 377.54C1168.39 379.448 1169.65 381.05 1172.24 381.05C1175.66 381.05 1176.65 378.62 1176.65 374.282C1176.65 370.25 1175.62 367.766 1172.1 367.766C1169.29 367.766 1167.81 369.566 1167.81 372.05C1167.81 374.804 1169.59 376.298 1171.99 376.298C1173.39 376.298 1174.69 375.668 1175.21 374.57C1175.26 378.386 1174.24 379.682 1172.33 379.682C1170.82 379.682 1169.95 378.89 1169.72 377.54H1168.21ZM1172.26 374.912C1170.31 374.912 1169.38 373.688 1169.38 372.014C1169.38 370.286 1170.44 369.134 1172.13 369.134C1174 369.134 1175.01 370.376 1175.01 372.14C1175.01 373.886 1173.82 374.912 1172.26 374.912Z" fill="#262626"/>
<path d="M762.765 382.598H763.737V381.14C766.185 380.978 767.445 379.268 767.445 377.594C767.445 375.092 765.519 374.57 763.737 374.12V369.728C764.835 369.962 765.429 370.772 765.537 371.546H767.283C767.103 369.728 765.789 368.522 763.737 368.342V366.848H762.765V368.342C760.515 368.486 759.039 369.872 759.039 371.816C759.039 374.3 760.965 374.822 762.765 375.29V379.79C761.487 379.592 760.893 378.71 760.803 377.774H759.057C759.093 379.682 760.605 380.942 762.765 381.14V382.598ZM765.807 377.684C765.807 378.764 765.069 379.664 763.737 379.808V375.56C764.889 375.902 765.807 376.406 765.807 377.684ZM760.713 371.726C760.713 370.448 761.559 369.8 762.765 369.692V373.85C761.613 373.49 760.713 373.004 760.713 371.726ZM770.866 377.54C771.046 379.448 772.306 381.05 774.898 381.05C778.318 381.05 779.308 378.62 779.308 374.282C779.308 370.25 778.282 367.766 774.754 367.766C771.946 367.766 770.47 369.566 770.47 372.05C770.47 374.804 772.252 376.298 774.646 376.298C776.05 376.298 777.346 375.668 777.868 374.57C777.922 378.386 776.896 379.682 774.988 379.682C773.476 379.682 772.612 378.89 772.378 377.54H770.866ZM774.916 374.912C772.972 374.912 772.036 373.688 772.036 372.014C772.036 370.286 773.098 369.134 774.79 369.134C776.662 369.134 777.67 370.376 777.67 372.14C777.67 373.886 776.482 374.912 774.916 374.912ZM782.204 377.54C782.384 379.448 783.644 381.05 786.236 381.05C789.656 381.05 790.646 378.62 790.646 374.282C790.646 370.25 789.62 367.766 786.092 367.766C783.284 367.766 781.808 369.566 781.808 372.05C781.808 374.804 783.59 376.298 785.984 376.298C787.388 376.298 788.684 375.668 789.206 374.57C789.26 378.386 788.234 379.682 786.326 379.682C784.814 379.682 783.95 378.89 783.716 377.54H782.204ZM786.254 374.912C784.31 374.912 783.374 373.688 783.374 372.014C783.374 370.286 784.436 369.134 786.128 369.134C788 369.134 789.008 370.376 789.008 372.14C789.008 373.886 787.82 374.912 786.254 374.912ZM795.324 374.264C793.866 374.696 792.912 375.884 792.912 377.522C792.912 379.88 794.766 381.392 797.502 381.392C800.256 381.392 802.128 379.88 802.128 377.522C802.128 375.902 801.174 374.714 799.698 374.264C800.976 373.76 801.786 372.68 801.786 371.276C801.786 369.386 800.328 367.82 797.502 367.82C794.676 367.82 793.236 369.368 793.236 371.276C793.236 372.734 793.992 373.742 795.324 374.264ZM797.502 373.724C795.918 373.724 794.82 372.842 794.82 371.492C794.82 369.962 795.9 369.188 797.502 369.188C799.14 369.188 800.202 369.98 800.202 371.474C800.202 372.824 799.104 373.724 797.502 373.724ZM797.502 374.984C799.212 374.984 800.508 375.794 800.508 377.468C800.508 378.98 799.356 380.024 797.502 380.024C795.648 380.024 794.478 378.998 794.478 377.468C794.478 375.74 795.828 374.984 797.502 374.984Z" fill="#262626"/>
<path d="M1054.27 349.032H938.322C935.95 349.032 934.028 350.823 934.028 353.032V391.032C934.028 393.241 935.95 395.032 938.322 395.032H1054.27C1056.64 395.032 1058.56 393.241 1058.56 391.032V353.032C1058.56 350.823 1056.64 349.032 1054.27 349.032Z" fill="#F6F7F8"/>
<path d="M1000.46 379.032V377.7H994.576C997.924 375.054 1000.41 372.822 1000.41 370.374C1000.41 367.98 998.374 366.846 996.376 366.846C994.684 366.846 993.118 367.53 992.2 368.736L993.118 369.69C993.82 368.79 994.936 368.178 996.376 368.178C997.618 368.178 998.878 368.844 998.878 370.374C998.878 372.444 996.538 374.442 992.218 377.844V379.032H1000.46Z" fill="#262626"/>
<path d="M1040.31 371.032H1031.73V373.032H1040.31V371.032Z" fill="#33A0FF"/>
<path d="M1037.09 376.032V368.032H1034.95V376.032H1037.09Z" fill="#33A0FF"/>
<path d="M960.868 371.032H952.279V373.032H960.868V371.032Z" fill="#33A0FF"/>
<path opacity="0.05" d="M11.8096 383.032C18.3318 383.032 23.6191 378.107 23.6191 372.032C23.6191 365.957 18.3318 361.032 11.8096 361.032C5.28732 361.032 0 365.957 0 372.032C0 378.107 5.28732 383.032 11.8096 383.032Z" fill="#FF6875"/>
<path d="M16.6249 368.739L15.8657 368.032L7.51511 375.81L8.27425 376.517L16.6249 368.739Z" fill="#FF4252"/>
<path d="M15.8659 376.517L16.625 375.81L8.27438 368.032L7.51524 368.739L15.8659 376.517Z" fill="#FF4252"/>
<path d="M190.027 307.032H50.4595V437.032H190.027V307.032Z" fill="white"/>
</svg>
